<mxfile host="app.diagrams.net" agent="Mozilla/5.0 (Windows NT 10.0; Win64; x64) AppleWebKit/537.36 (KHTML, like Gecko) Chrome/127.0.0.0 Safari/537.36" version="24.7.8">
  <diagram name="Page-1" id="fMkuBY3DzN7pvkopR0qA">
    <mxGraphModel dx="411" dy="521" grid="1" gridSize="10" guides="1" tooltips="1" connect="1" arrows="1" fold="1" page="1" pageScale="1" pageWidth="850" pageHeight="1100" math="0" shadow="0">
      <root>
        <mxCell id="0" />
        <mxCell id="1" parent="0" />
        <mxCell id="bJwC49n2kLytIpeOi1GN-2" value="" style="swimlane;startSize=0;" vertex="1" parent="1">
          <mxGeometry x="171" y="140" width="520" height="460" as="geometry">
            <mxRectangle x="180" y="160" width="50" height="40" as="alternateBounds" />
          </mxGeometry>
        </mxCell>
        <mxCell id="bJwC49n2kLytIpeOi1GN-4" value="monitoring&amp;nbsp;&lt;div&gt;traffic light&lt;/div&gt;" style="ellipse;whiteSpace=wrap;html=1;" vertex="1" parent="bJwC49n2kLytIpeOi1GN-2">
          <mxGeometry x="106" y="25" width="120" height="50" as="geometry" />
        </mxCell>
        <mxCell id="bJwC49n2kLytIpeOi1GN-7" value="login" style="ellipse;whiteSpace=wrap;html=1;" vertex="1" parent="bJwC49n2kLytIpeOi1GN-2">
          <mxGeometry x="106" y="340" width="120" height="50" as="geometry" />
        </mxCell>
        <mxCell id="bJwC49n2kLytIpeOi1GN-9" value="melakukan kontrol&lt;div&gt;traffic light&lt;/div&gt;" style="ellipse;whiteSpace=wrap;html=1;" vertex="1" parent="bJwC49n2kLytIpeOi1GN-2">
          <mxGeometry x="105" y="115" width="120" height="50" as="geometry" />
        </mxCell>
        <mxCell id="bJwC49n2kLytIpeOi1GN-10" value="" style="endArrow=none;dashed=1;html=1;rounded=0;exitX=0.5;exitY=1;exitDx=0;exitDy=0;entryX=0.5;entryY=0;entryDx=0;entryDy=0;startArrow=classic;startFill=1;" edge="1" parent="bJwC49n2kLytIpeOi1GN-2" source="bJwC49n2kLytIpeOi1GN-9" target="bJwC49n2kLytIpeOi1GN-7">
          <mxGeometry width="50" height="50" relative="1" as="geometry">
            <mxPoint x="169.36" y="249.7500000000001" as="sourcePoint" />
            <mxPoint x="169.63999999999993" y="153.3499999999999" as="targetPoint" />
          </mxGeometry>
        </mxCell>
        <mxCell id="bJwC49n2kLytIpeOi1GN-11" value="&amp;lt;&amp;lt;include&amp;gt;&amp;gt;" style="text;html=1;align=center;verticalAlign=middle;whiteSpace=wrap;rounded=0;fontSize=8;" vertex="1" parent="bJwC49n2kLytIpeOi1GN-2">
          <mxGeometry x="159" y="175" width="60" height="10" as="geometry" />
        </mxCell>
        <mxCell id="bJwC49n2kLytIpeOi1GN-45" value="mengatur&lt;div&gt;mode traffic light&lt;/div&gt;" style="ellipse;whiteSpace=wrap;html=1;" vertex="1" parent="bJwC49n2kLytIpeOi1GN-2">
          <mxGeometry x="319" y="40" width="120" height="50" as="geometry" />
        </mxCell>
        <mxCell id="bJwC49n2kLytIpeOi1GN-46" value="mengatur&lt;div&gt;jadwal(scheduling)&lt;/div&gt;" style="ellipse;whiteSpace=wrap;html=1;" vertex="1" parent="bJwC49n2kLytIpeOi1GN-2">
          <mxGeometry x="319" y="125" width="120" height="50" as="geometry" />
        </mxCell>
        <mxCell id="bJwC49n2kLytIpeOi1GN-47" value="mengatur&lt;div&gt;durasi&lt;/div&gt;" style="ellipse;whiteSpace=wrap;html=1;" vertex="1" parent="bJwC49n2kLytIpeOi1GN-2">
          <mxGeometry x="319" y="200" width="120" height="50" as="geometry" />
        </mxCell>
        <mxCell id="bJwC49n2kLytIpeOi1GN-48" value="mengatur&lt;div&gt;waktu (RTC)&lt;/div&gt;" style="ellipse;whiteSpace=wrap;html=1;" vertex="1" parent="bJwC49n2kLytIpeOi1GN-2">
          <mxGeometry x="319" y="280" width="120" height="50" as="geometry" />
        </mxCell>
        <mxCell id="bJwC49n2kLytIpeOi1GN-49" value="" style="endArrow=none;dashed=1;html=1;rounded=0;entryX=0;entryY=0.5;entryDx=0;entryDy=0;exitX=1;exitY=0;exitDx=0;exitDy=0;" edge="1" parent="bJwC49n2kLytIpeOi1GN-2" source="bJwC49n2kLytIpeOi1GN-9" target="bJwC49n2kLytIpeOi1GN-45">
          <mxGeometry width="50" height="50" relative="1" as="geometry">
            <mxPoint x="209" y="300" as="sourcePoint" />
            <mxPoint x="259" y="250" as="targetPoint" />
          </mxGeometry>
        </mxCell>
        <mxCell id="bJwC49n2kLytIpeOi1GN-50" value="&amp;lt;&amp;lt;extend&amp;gt;&amp;gt;" style="text;html=1;align=center;verticalAlign=middle;whiteSpace=wrap;rounded=0;fontSize=8;" vertex="1" parent="bJwC49n2kLytIpeOi1GN-2">
          <mxGeometry x="177" y="109" width="60" height="10" as="geometry" />
        </mxCell>
        <mxCell id="bJwC49n2kLytIpeOi1GN-51" value="" style="endArrow=none;dashed=1;html=1;rounded=0;entryX=0.445;entryY=1.04;entryDx=0;entryDy=0;exitX=0.458;exitY=0.018;exitDx=0;exitDy=0;entryPerimeter=0;exitPerimeter=0;" edge="1" parent="bJwC49n2kLytIpeOi1GN-2" source="bJwC49n2kLytIpeOi1GN-9" target="bJwC49n2kLytIpeOi1GN-4">
          <mxGeometry width="50" height="50" relative="1" as="geometry">
            <mxPoint x="217" y="132" as="sourcePoint" />
            <mxPoint x="329" y="75" as="targetPoint" />
          </mxGeometry>
        </mxCell>
        <mxCell id="bJwC49n2kLytIpeOi1GN-52" value="&amp;lt;&amp;lt;extend&amp;gt;&amp;gt;" style="text;html=1;align=center;verticalAlign=middle;whiteSpace=wrap;rounded=0;fontSize=8;" vertex="1" parent="bJwC49n2kLytIpeOi1GN-2">
          <mxGeometry x="108" y="103" width="60" height="10" as="geometry" />
        </mxCell>
        <mxCell id="bJwC49n2kLytIpeOi1GN-53" value="" style="endArrow=none;dashed=1;html=1;rounded=0;exitX=0.979;exitY=0.368;exitDx=0;exitDy=0;exitPerimeter=0;" edge="1" parent="bJwC49n2kLytIpeOi1GN-2" source="bJwC49n2kLytIpeOi1GN-9" target="bJwC49n2kLytIpeOi1GN-46">
          <mxGeometry width="50" height="50" relative="1" as="geometry">
            <mxPoint x="217" y="132" as="sourcePoint" />
            <mxPoint x="329" y="75" as="targetPoint" />
          </mxGeometry>
        </mxCell>
        <mxCell id="bJwC49n2kLytIpeOi1GN-54" value="" style="endArrow=none;dashed=1;html=1;rounded=0;exitX=0.972;exitY=0.648;exitDx=0;exitDy=0;exitPerimeter=0;entryX=0.11;entryY=0.219;entryDx=0;entryDy=0;entryPerimeter=0;" edge="1" parent="bJwC49n2kLytIpeOi1GN-2" source="bJwC49n2kLytIpeOi1GN-9" target="bJwC49n2kLytIpeOi1GN-47">
          <mxGeometry width="50" height="50" relative="1" as="geometry">
            <mxPoint x="232" y="143" as="sourcePoint" />
            <mxPoint x="331" y="154" as="targetPoint" />
          </mxGeometry>
        </mxCell>
        <mxCell id="bJwC49n2kLytIpeOi1GN-55" value="" style="endArrow=none;dashed=1;html=1;rounded=0;exitX=0.908;exitY=0.842;exitDx=0;exitDy=0;exitPerimeter=0;entryX=0.017;entryY=0.345;entryDx=0;entryDy=0;entryPerimeter=0;" edge="1" parent="bJwC49n2kLytIpeOi1GN-2" source="bJwC49n2kLytIpeOi1GN-9" target="bJwC49n2kLytIpeOi1GN-48">
          <mxGeometry width="50" height="50" relative="1" as="geometry">
            <mxPoint x="232" y="157" as="sourcePoint" />
            <mxPoint x="342" y="221" as="targetPoint" />
          </mxGeometry>
        </mxCell>
        <mxCell id="bJwC49n2kLytIpeOi1GN-56" value="&amp;lt;&amp;lt;extend&amp;gt;&amp;gt;" style="text;html=1;align=center;verticalAlign=middle;whiteSpace=wrap;rounded=0;fontSize=8;" vertex="1" parent="bJwC49n2kLytIpeOi1GN-2">
          <mxGeometry x="219" y="125" width="60" height="10" as="geometry" />
        </mxCell>
        <mxCell id="bJwC49n2kLytIpeOi1GN-57" value="&amp;lt;&amp;lt;extend&amp;gt;&amp;gt;" style="text;html=1;align=center;verticalAlign=middle;whiteSpace=wrap;rounded=0;fontSize=8;" vertex="1" parent="bJwC49n2kLytIpeOi1GN-2">
          <mxGeometry x="233" y="156" width="60" height="10" as="geometry" />
        </mxCell>
        <mxCell id="bJwC49n2kLytIpeOi1GN-58" value="&amp;lt;&amp;lt;extend&amp;gt;&amp;gt;" style="text;html=1;align=center;verticalAlign=middle;whiteSpace=wrap;rounded=0;fontSize=8;" vertex="1" parent="bJwC49n2kLytIpeOi1GN-2">
          <mxGeometry x="219" y="190" width="60" height="10" as="geometry" />
        </mxCell>
        <mxCell id="bJwC49n2kLytIpeOi1GN-3" value="admin" style="shape=umlActor;verticalLabelPosition=bottom;verticalAlign=top;html=1;outlineConnect=0;" vertex="1" parent="1">
          <mxGeometry x="110" y="220" width="30" height="60" as="geometry" />
        </mxCell>
        <mxCell id="bJwC49n2kLytIpeOi1GN-6" value="" style="endArrow=none;html=1;rounded=0;entryX=0;entryY=0.5;entryDx=0;entryDy=0;" edge="1" parent="1" source="bJwC49n2kLytIpeOi1GN-3" target="bJwC49n2kLytIpeOi1GN-4">
          <mxGeometry width="50" height="50" relative="1" as="geometry">
            <mxPoint x="570" y="320" as="sourcePoint" />
            <mxPoint x="620" y="270" as="targetPoint" />
          </mxGeometry>
        </mxCell>
        <mxCell id="bJwC49n2kLytIpeOi1GN-8" value="" style="endArrow=none;html=1;rounded=0;entryX=0.003;entryY=0.372;entryDx=0;entryDy=0;entryPerimeter=0;" edge="1" parent="1" source="bJwC49n2kLytIpeOi1GN-3" target="bJwC49n2kLytIpeOi1GN-9">
          <mxGeometry width="50" height="50" relative="1" as="geometry">
            <mxPoint x="240" y="310" as="sourcePoint" />
            <mxPoint x="290" y="260" as="targetPoint" />
          </mxGeometry>
        </mxCell>
        <mxCell id="bJwC49n2kLytIpeOi1GN-34" value="" style="swimlane;startSize=0;" vertex="1" parent="1">
          <mxGeometry x="730" y="695" width="300" height="200" as="geometry" />
        </mxCell>
        <mxCell id="bJwC49n2kLytIpeOi1GN-20" value="verifikasi&lt;div&gt;pembayaran&lt;/div&gt;" style="ellipse;whiteSpace=wrap;html=1;" vertex="1" parent="bJwC49n2kLytIpeOi1GN-34">
          <mxGeometry x="170" y="90" width="120" height="50" as="geometry" />
        </mxCell>
        <mxCell id="bJwC49n2kLytIpeOi1GN-21" value="lihat riwayat&lt;div&gt;pembayaran&lt;/div&gt;" style="ellipse;whiteSpace=wrap;html=1;" vertex="1" parent="bJwC49n2kLytIpeOi1GN-34">
          <mxGeometry x="10" y="130" width="120" height="50" as="geometry" />
        </mxCell>
        <mxCell id="bJwC49n2kLytIpeOi1GN-27" value="" style="endArrow=none;dashed=1;html=1;rounded=0;exitX=0.962;exitY=0.232;exitDx=0;exitDy=0;entryX=0.038;entryY=0.728;entryDx=0;entryDy=0;entryPerimeter=0;exitPerimeter=0;" edge="1" parent="bJwC49n2kLytIpeOi1GN-34" source="bJwC49n2kLytIpeOi1GN-21" target="bJwC49n2kLytIpeOi1GN-20">
          <mxGeometry width="50" height="50" relative="1" as="geometry">
            <mxPoint x="-180" y="-75" as="sourcePoint" />
            <mxPoint x="-120" y="-55" as="targetPoint" />
          </mxGeometry>
        </mxCell>
        <mxCell id="bJwC49n2kLytIpeOi1GN-19" value="Bayar Tagihan" style="ellipse;whiteSpace=wrap;html=1;" vertex="1" parent="bJwC49n2kLytIpeOi1GN-34">
          <mxGeometry x="10" y="40" width="120" height="50" as="geometry" />
        </mxCell>
        <mxCell id="bJwC49n2kLytIpeOi1GN-25" value="" style="endArrow=none;dashed=1;html=1;rounded=0;exitX=1;exitY=0.5;exitDx=0;exitDy=0;entryX=0.083;entryY=0.2;entryDx=0;entryDy=0;entryPerimeter=0;" edge="1" parent="bJwC49n2kLytIpeOi1GN-34" source="bJwC49n2kLytIpeOi1GN-19" target="bJwC49n2kLytIpeOi1GN-20">
          <mxGeometry width="50" height="50" relative="1" as="geometry">
            <mxPoint x="-130" y="-70" as="sourcePoint" />
            <mxPoint x="-80" y="-75" as="targetPoint" />
          </mxGeometry>
        </mxCell>
        <mxCell id="bJwC49n2kLytIpeOi1GN-26" value="&amp;lt;&amp;lt;include&amp;gt;&amp;gt;" style="text;html=1;align=center;verticalAlign=middle;whiteSpace=wrap;rounded=0;" vertex="1" parent="bJwC49n2kLytIpeOi1GN-34">
          <mxGeometry x="150" y="70" width="60" height="30" as="geometry" />
        </mxCell>
        <mxCell id="bJwC49n2kLytIpeOi1GN-28" value="&amp;lt;&amp;lt;include&amp;gt;&amp;gt;" style="text;html=1;align=center;verticalAlign=middle;whiteSpace=wrap;rounded=0;" vertex="1" parent="bJwC49n2kLytIpeOi1GN-34">
          <mxGeometry x="130" y="120" width="60" height="30" as="geometry" />
        </mxCell>
        <mxCell id="bJwC49n2kLytIpeOi1GN-22" value="use case utama" style="text;html=1;align=center;verticalAlign=middle;whiteSpace=wrap;rounded=0;" vertex="1" parent="bJwC49n2kLytIpeOi1GN-34">
          <mxGeometry x="40" y="10" width="60" height="30" as="geometry" />
        </mxCell>
        <mxCell id="bJwC49n2kLytIpeOi1GN-35" value="" style="swimlane;startSize=0;" vertex="1" parent="1">
          <mxGeometry x="300" y="680" width="340" height="230" as="geometry" />
        </mxCell>
        <mxCell id="bJwC49n2kLytIpeOi1GN-29" value="Pesan&lt;div&gt;Tiket&lt;/div&gt;" style="ellipse;whiteSpace=wrap;html=1;" vertex="1" parent="bJwC49n2kLytIpeOi1GN-35">
          <mxGeometry x="80" y="50" width="120" height="50" as="geometry" />
        </mxCell>
        <mxCell id="bJwC49n2kLytIpeOi1GN-30" value="Tawarkan&lt;div&gt;Upgrade Kelas&lt;/div&gt;" style="ellipse;whiteSpace=wrap;html=1;" vertex="1" parent="bJwC49n2kLytIpeOi1GN-35">
          <mxGeometry x="80" y="150" width="120" height="50" as="geometry" />
        </mxCell>
        <mxCell id="bJwC49n2kLytIpeOi1GN-31" value="use case utama" style="text;html=1;align=center;verticalAlign=middle;whiteSpace=wrap;rounded=0;" vertex="1" parent="bJwC49n2kLytIpeOi1GN-35">
          <mxGeometry x="110" y="20" width="60" height="30" as="geometry" />
        </mxCell>
        <mxCell id="bJwC49n2kLytIpeOi1GN-32" value="" style="endArrow=none;dashed=1;html=1;rounded=0;exitX=0.5;exitY=0;exitDx=0;exitDy=0;entryX=0.5;entryY=1;entryDx=0;entryDy=0;" edge="1" parent="bJwC49n2kLytIpeOi1GN-35" source="bJwC49n2kLytIpeOi1GN-30" target="bJwC49n2kLytIpeOi1GN-29">
          <mxGeometry width="50" height="50" relative="1" as="geometry">
            <mxPoint x="130" y="146" as="sourcePoint" />
            <mxPoint x="200" y="100" as="targetPoint" />
          </mxGeometry>
        </mxCell>
        <mxCell id="bJwC49n2kLytIpeOi1GN-33" value="&amp;lt;&amp;lt;extend&amp;gt;&amp;gt;" style="text;html=1;align=center;verticalAlign=middle;whiteSpace=wrap;rounded=0;" vertex="1" parent="bJwC49n2kLytIpeOi1GN-35">
          <mxGeometry x="143" y="110" width="60" height="30" as="geometry" />
        </mxCell>
      </root>
    </mxGraphModel>
  </diagram>
</mxfile>
